<mxfile host="app.diagrams.net" modified="2022-03-14T11:30:29.986Z" agent="5.0 (Windows NT 10.0; Win64; x64) AppleWebKit/537.36 (KHTML, like Gecko) Chrome/99.0.4844.51 Safari/537.36" etag="4fe8iLDFSV0-isngwXAi" version="17.1.2" type="github">
  <diagram id="kgpKYQtTHZ0yAKxKKP6v" name="Page-1">
    <mxGraphModel dx="1209" dy="598" grid="1" gridSize="10" guides="1" tooltips="1" connect="1" arrows="1" fold="1" page="1" pageScale="1" pageWidth="850" pageHeight="1100" math="0" shadow="0">
      <root>
        <mxCell id="0" />
        <mxCell id="1" parent="0" />
        <mxCell id="2RqecVdCljDjrjuPHwnQ-671" value="Dashboard" style="shape=umlBoundary;whiteSpace=wrap;html=1;" parent="1" vertex="1">
          <mxGeometry x="250" y="70" width="100" height="80" as="geometry" />
        </mxCell>
        <mxCell id="2RqecVdCljDjrjuPHwnQ-672" value="Themes" style="ellipse;shape=umlEntity;whiteSpace=wrap;html=1;" parent="1" vertex="1">
          <mxGeometry x="610" y="60" width="80" height="80" as="geometry" />
        </mxCell>
        <mxCell id="2RqecVdCljDjrjuPHwnQ-673" value="Controleur" style="ellipse;shape=umlControl;whiteSpace=wrap;html=1;" parent="1" vertex="1">
          <mxGeometry x="440" y="60" width="70" height="80" as="geometry" />
        </mxCell>
        <mxCell id="2RqecVdCljDjrjuPHwnQ-674" value="Enseignant" style="shape=umlActor;verticalLabelPosition=bottom;verticalAlign=top;html=1;" parent="1" vertex="1">
          <mxGeometry x="110" y="80" width="30" height="60" as="geometry" />
        </mxCell>
        <mxCell id="2RqecVdCljDjrjuPHwnQ-676" value="" style="endArrow=none;dashed=1;html=1;rounded=0;exitX=0.511;exitY=1.037;exitDx=0;exitDy=0;exitPerimeter=0;startArrow=none;" parent="1" source="2RqecVdCljDjrjuPHwnQ-694" edge="1">
          <mxGeometry width="50" height="50" relative="1" as="geometry">
            <mxPoint x="319.4000000000001" y="163.44000000000005" as="sourcePoint" />
            <mxPoint x="476" y="510" as="targetPoint" />
          </mxGeometry>
        </mxCell>
        <mxCell id="2RqecVdCljDjrjuPHwnQ-677" value="" style="endArrow=none;dashed=1;html=1;rounded=0;exitX=0.5;exitY=1;exitDx=0;exitDy=0;startArrow=none;" parent="1" source="7g0b0Kq1w9IPp-m6tUGK-23" edge="1">
          <mxGeometry width="50" height="50" relative="1" as="geometry">
            <mxPoint x="329.4000000000001" y="173.44000000000005" as="sourcePoint" />
            <mxPoint x="650" y="450" as="targetPoint" />
          </mxGeometry>
        </mxCell>
        <mxCell id="2RqecVdCljDjrjuPHwnQ-680" value="" style="endArrow=none;dashed=1;html=1;rounded=0;startArrow=none;" parent="1" source="LjTxb4yABLb-oSGwV6lj-2" edge="1">
          <mxGeometry width="50" height="50" relative="1" as="geometry">
            <mxPoint x="120" y="520" as="sourcePoint" />
            <mxPoint x="120" y="140" as="targetPoint" />
          </mxGeometry>
        </mxCell>
        <mxCell id="2RqecVdCljDjrjuPHwnQ-687" value="" style="endArrow=classic;html=1;rounded=0;entryX=-0.05;entryY=0.571;entryDx=0;entryDy=0;entryPerimeter=0;" parent="1" edge="1">
          <mxGeometry relative="1" as="geometry">
            <mxPoint x="121" y="280" as="sourcePoint" />
            <mxPoint x="300" y="281.3299999999999" as="targetPoint" />
            <Array as="points">
              <mxPoint x="201" y="281" />
            </Array>
          </mxGeometry>
        </mxCell>
        <mxCell id="2RqecVdCljDjrjuPHwnQ-693" value="Cliquer sur&amp;nbsp;&lt;br&gt;le bouton&lt;br&gt;Touts les&amp;nbsp;&lt;br&gt;thèmes" style="edgeLabel;html=1;align=center;verticalAlign=middle;resizable=0;points=[];" parent="2RqecVdCljDjrjuPHwnQ-687" vertex="1" connectable="0">
          <mxGeometry x="0.0281" y="-2" relative="1" as="geometry">
            <mxPoint as="offset" />
          </mxGeometry>
        </mxCell>
        <mxCell id="2RqecVdCljDjrjuPHwnQ-694" value="" style="html=1;points=[];perimeter=orthogonalPerimeter;" parent="1" vertex="1">
          <mxGeometry x="470" y="240" width="10" height="220" as="geometry" />
        </mxCell>
        <mxCell id="2RqecVdCljDjrjuPHwnQ-695" value="" style="endArrow=none;dashed=1;html=1;rounded=0;exitX=0.511;exitY=1.037;exitDx=0;exitDy=0;exitPerimeter=0;" parent="1" source="2RqecVdCljDjrjuPHwnQ-673" target="2RqecVdCljDjrjuPHwnQ-694" edge="1">
          <mxGeometry width="50" height="50" relative="1" as="geometry">
            <mxPoint x="475.77" y="142.96000000000004" as="sourcePoint" />
            <mxPoint x="476" y="550" as="targetPoint" />
          </mxGeometry>
        </mxCell>
        <mxCell id="2RqecVdCljDjrjuPHwnQ-698" value="" style="endArrow=none;dashed=1;html=1;rounded=0;entryX=0.53;entryY=1.013;entryDx=0;entryDy=0;entryPerimeter=0;startArrow=none;" parent="1" source="2RqecVdCljDjrjuPHwnQ-696" target="2RqecVdCljDjrjuPHwnQ-671" edge="1">
          <mxGeometry width="50" height="50" relative="1" as="geometry">
            <mxPoint x="304.5" y="570" as="sourcePoint" />
            <mxPoint x="304.5" y="160" as="targetPoint" />
          </mxGeometry>
        </mxCell>
        <mxCell id="2RqecVdCljDjrjuPHwnQ-696" value="" style="html=1;points=[];perimeter=orthogonalPerimeter;" parent="1" vertex="1">
          <mxGeometry x="300" y="170" width="10" height="320" as="geometry" />
        </mxCell>
        <mxCell id="2RqecVdCljDjrjuPHwnQ-699" value="" style="endArrow=none;dashed=1;html=1;rounded=0;entryX=0.53;entryY=1.013;entryDx=0;entryDy=0;entryPerimeter=0;" parent="1" target="2RqecVdCljDjrjuPHwnQ-696" edge="1">
          <mxGeometry width="50" height="50" relative="1" as="geometry">
            <mxPoint x="305" y="530" as="sourcePoint" />
            <mxPoint x="303" y="151.03999999999996" as="targetPoint" />
          </mxGeometry>
        </mxCell>
        <mxCell id="2RqecVdCljDjrjuPHwnQ-700" value="Connection" style="rounded=0;whiteSpace=wrap;html=1;" parent="1" vertex="1">
          <mxGeometry x="100" y="180" width="220" height="60" as="geometry" />
        </mxCell>
        <mxCell id="2RqecVdCljDjrjuPHwnQ-701" value="REF" style="rounded=0;whiteSpace=wrap;html=1;" parent="1" vertex="1">
          <mxGeometry x="100" y="180" width="40" height="20" as="geometry" />
        </mxCell>
        <mxCell id="7g0b0Kq1w9IPp-m6tUGK-1" value="" style="endArrow=classic;html=1;rounded=0;" parent="1" edge="1">
          <mxGeometry relative="1" as="geometry">
            <mxPoint x="310" y="310" as="sourcePoint" />
            <mxPoint x="470" y="311" as="targetPoint" />
            <Array as="points">
              <mxPoint x="390" y="311" />
            </Array>
          </mxGeometry>
        </mxCell>
        <mxCell id="7g0b0Kq1w9IPp-m6tUGK-2" value="Demande&amp;nbsp;&lt;br&gt;d&#39;affichage&lt;br&gt;de la liste des&lt;br&gt;Thèmes" style="edgeLabel;html=1;align=center;verticalAlign=middle;resizable=0;points=[];" parent="7g0b0Kq1w9IPp-m6tUGK-1" vertex="1" connectable="0">
          <mxGeometry x="0.0281" y="-2" relative="1" as="geometry">
            <mxPoint as="offset" />
          </mxGeometry>
        </mxCell>
        <mxCell id="7g0b0Kq1w9IPp-m6tUGK-21" value="" style="endArrow=classic;html=1;rounded=0;" parent="1" edge="1">
          <mxGeometry relative="1" as="geometry">
            <mxPoint x="485" y="350" as="sourcePoint" />
            <mxPoint x="645" y="351" as="targetPoint" />
            <Array as="points">
              <mxPoint x="565" y="351" />
            </Array>
          </mxGeometry>
        </mxCell>
        <mxCell id="7g0b0Kq1w9IPp-m6tUGK-22" value="Demande de rendre&lt;br&gt;les Thèmes" style="edgeLabel;html=1;align=center;verticalAlign=middle;resizable=0;points=[];" parent="7g0b0Kq1w9IPp-m6tUGK-21" vertex="1" connectable="0">
          <mxGeometry x="0.0281" y="-2" relative="1" as="geometry">
            <mxPoint as="offset" />
          </mxGeometry>
        </mxCell>
        <mxCell id="7g0b0Kq1w9IPp-m6tUGK-23" value="" style="html=1;points=[];perimeter=orthogonalPerimeter;" parent="1" vertex="1">
          <mxGeometry x="645" y="330" width="10" height="80" as="geometry" />
        </mxCell>
        <mxCell id="7g0b0Kq1w9IPp-m6tUGK-24" value="" style="endArrow=none;dashed=1;html=1;rounded=0;exitX=0.5;exitY=1;exitDx=0;exitDy=0;" parent="1" source="2RqecVdCljDjrjuPHwnQ-672" target="7g0b0Kq1w9IPp-m6tUGK-23" edge="1">
          <mxGeometry width="50" height="50" relative="1" as="geometry">
            <mxPoint x="650" y="140" as="sourcePoint" />
            <mxPoint x="650" y="550" as="targetPoint" />
          </mxGeometry>
        </mxCell>
        <mxCell id="7g0b0Kq1w9IPp-m6tUGK-25" value="" style="endArrow=classic;html=1;rounded=0;" parent="1" edge="1">
          <mxGeometry relative="1" as="geometry">
            <mxPoint x="640" y="389.5" as="sourcePoint" />
            <mxPoint x="480" y="389.5" as="targetPoint" />
            <Array as="points" />
          </mxGeometry>
        </mxCell>
        <mxCell id="7g0b0Kq1w9IPp-m6tUGK-26" value="Rendre les Tèmes" style="edgeLabel;resizable=0;html=1;align=center;verticalAlign=middle;" parent="7g0b0Kq1w9IPp-m6tUGK-25" connectable="0" vertex="1">
          <mxGeometry relative="1" as="geometry" />
        </mxCell>
        <mxCell id="7g0b0Kq1w9IPp-m6tUGK-27" value="" style="endArrow=classic;html=1;rounded=0;exitX=-0.159;exitY=0.533;exitDx=0;exitDy=0;exitPerimeter=0;entryX=1.312;entryY=0.742;entryDx=0;entryDy=0;entryPerimeter=0;" parent="1" edge="1">
          <mxGeometry relative="1" as="geometry">
            <mxPoint x="469.99999999999983" y="420.0000000000001" as="sourcePoint" />
            <mxPoint x="314.70999999999987" y="420.12" as="targetPoint" />
            <Array as="points" />
          </mxGeometry>
        </mxCell>
        <mxCell id="7g0b0Kq1w9IPp-m6tUGK-28" value="Afficher les Thèmes" style="edgeLabel;resizable=0;html=1;align=center;verticalAlign=middle;" parent="7g0b0Kq1w9IPp-m6tUGK-27" connectable="0" vertex="1">
          <mxGeometry relative="1" as="geometry">
            <mxPoint x="8" as="offset" />
          </mxGeometry>
        </mxCell>
        <mxCell id="7g0b0Kq1w9IPp-m6tUGK-29" value="" style="endArrow=classic;html=1;rounded=0;exitX=0.088;exitY=0.968;exitDx=0;exitDy=0;exitPerimeter=0;entryX=1.42;entryY=0.844;entryDx=0;entryDy=0;entryPerimeter=0;" parent="1" target="LjTxb4yABLb-oSGwV6lj-2" edge="1">
          <mxGeometry relative="1" as="geometry">
            <mxPoint x="300.4400000000001" y="460" as="sourcePoint" />
            <mxPoint x="119.55999999999989" y="461.6" as="targetPoint" />
            <Array as="points" />
          </mxGeometry>
        </mxCell>
        <mxCell id="7g0b0Kq1w9IPp-m6tUGK-30" value="Thèmes affiché" style="edgeLabel;resizable=0;html=1;align=center;verticalAlign=middle;" parent="7g0b0Kq1w9IPp-m6tUGK-29" connectable="0" vertex="1">
          <mxGeometry relative="1" as="geometry" />
        </mxCell>
        <mxCell id="LjTxb4yABLb-oSGwV6lj-2" value="" style="html=1;points=[];perimeter=orthogonalPerimeter;" parent="1" vertex="1">
          <mxGeometry x="115" y="240" width="10" height="260" as="geometry" />
        </mxCell>
        <mxCell id="LjTxb4yABLb-oSGwV6lj-3" value="" style="endArrow=none;dashed=1;html=1;rounded=0;" parent="1" target="LjTxb4yABLb-oSGwV6lj-2" edge="1">
          <mxGeometry width="50" height="50" relative="1" as="geometry">
            <mxPoint x="120" y="520" as="sourcePoint" />
            <mxPoint x="120" y="140" as="targetPoint" />
          </mxGeometry>
        </mxCell>
      </root>
    </mxGraphModel>
  </diagram>
</mxfile>
